<?xml version="1.0" encoding="UTF-8" standalone="no"?>
<svg width="572px" height="316px" viewBox="0 0 572 316" version="1.1" xmlns="http://www.w3.org/2000/svg" xmlns:xlink="http://www.w3.org/1999/xlink" xmlns:sketch="http://www.bohemiancoding.com/sketch/ns">
    <!-- Generator: Sketch 3.4.1 (15681) - http://www.bohemiancoding.com/sketch -->
    <title>gauge</title>
    <desc>Created with Sketch.</desc>
    <defs></defs>
    <g id="Page-1" stroke="none" stroke-width="1" fill="none" fill-rule="evenodd" sketch:type="MSPage">
        <g id="gauge" sketch:type="MSLayerGroup">
            <g id="Page-1" sketch:type="MSShapeGroup">
                <g id="gauge">
                    <path d="M387.259603,185.448497 L488.5862,84.1219 C539.8072,135.5209 571.5952,206.2989 571.9962,284.5009 L427.999203,284.5009 C427.866396,245.92067 412.348178,210.964831 387.259603,185.448497 L387.259603,185.448497 L387.259603,185.448497 L387.259603,185.448497 Z" id="success" fill="#20BF55"></path>
                    <path d="M287.5002,143.007761 L287.5002,0.0037 C365.7022,0.4057 436.4802,32.1937 487.8792,83.4147 L386.556006,184.737894 C361.175174,159.283128 326.191737,143.408248 287.5002,143.007761 L287.5002,143.007761 L287.5002,143.007761 L287.5002,143.007761 Z" id="normal" fill="#FCBF48"></path>
                    <path d="M186.44749,183.741387 L85.125,82.4194 C136.77,31.4564 207.712,0.0004 286,0.0004 L286.5,0.0004 L286.5,143.000862 C286.333401,143.000287 286.166734,143 286,143 C247.221691,143 212.073898,158.544085 186.44749,183.741387 L186.44749,183.741387 L186.44749,183.741387 L186.44749,183.741387 Z" id="warning" fill="#FA9700"></path>
                    <path d="M144.00086,284.5005 L0.0035,284.5005 C0.4075,205.7905 32.6075,134.6015 84.4145,83.1225 L185.736943,184.444943 C160.063464,210.044333 144.135462,245.41216 144.00086,284.5005 L144.00086,284.5005 L144.00086,284.5005 L144.00086,284.5005 Z" id="danger" fill="#D62828"></path>
                    <path d="M257.504785,266.619286 L88,283 L257.504785,299.380714 C263.089875,308.735193 273.313325,315 285,315 C302.673112,315 317,300.673112 317,283 C317,265.326888 302.673112,251 285,251 C273.313325,251 263.089875,257.264807 257.504785,266.619286 L257.504785,266.619286 L257.504785,266.619286 L257.504785,266.619286 L257.504785,266.619286 Z" id="arrow" stroke="#F3EED5" fill="#331D0B"></path>
                </g>
            </g>
        </g>
    </g>
</svg>